<svg width="14" height="14" viewBox="0 0 14 14" fill="none" xmlns="http://www.w3.org/2000/svg">
<path d="M13.3004 0.699902C12.9004 0.299902 12.3004 0.299902 11.9004 0.699902L7.00039 5.5999L2.10039 0.699902C1.70039 0.299902 1.10039 0.299902 0.70039 0.699902C0.30039 1.0999 0.30039 1.6999 0.70039 2.0999L5.60039 6.9999L0.70039 11.8999C0.30039 12.2999 0.30039 12.8999 0.70039 13.2999C1.10039 13.6999 1.70039 13.6999 2.10039 13.2999L7.00039 8.3999L11.9004 13.2999C12.3004 13.6999 12.9004 13.6999 13.3004 13.2999C13.7004 12.8999 13.7004 12.2999 13.3004 11.8999L8.40039 6.9999L13.3004 2.0999C13.7004 1.6999 13.7004 1.0999 13.3004 0.699902Z" fill="#212121"/>
</svg>
