<svg width="24" height="24" viewBox="0 0 24 24" fill="none" xmlns="http://www.w3.org/2000/svg">
<path d="M2.83333 7.2C2.33333 7.2 2 7.52 2 8V11.2V18.4C2 19.28 2.75 20 3.66667 20H17.8333C18.25 20 18.6667 19.6 18.6667 19.2C18.6667 18.8 18.25 18.4 17.8333 18.4H4.5C4.08333 18.4 3.66667 18 3.66667 17.6V8C3.66667 7.52 3.25 7.2 2.83333 7.2ZM20.3333 5.6H13.6667L12.5 4.48C12.1667 4.16 11.75 4 11.3333 4H7C6.08333 4 5.33333 4.72 5.33333 5.6V15.2C5.33333 16.08 6.08333 16.8 7 16.8H20.3333C21.25 16.8 22 16.08 22 15.2V7.2C22 6.32 21.25 5.6 20.3333 5.6ZM8.33333 13.76L11.25 10C11.4167 9.76 11.75 9.76 11.9167 10L14.5 13.2L16.25 11.2C16.4167 11.04 16.75 11.04 16.9167 11.2L19 13.76C19.25 14 19 14.4 18.6667 14.4H8.66667C8.33333 14.4 8.08333 14 8.33333 13.76Z" fill="#212121"/>
</svg>
