<svg width="24" height="24" viewBox="0 0 24 24" fill="none" xmlns="http://www.w3.org/2000/svg">
<path d="M12 2C6.5 2 2 6.5 2 12C2 17.5 6.5 22 12 22C17.5 22 22 17.5 22 12C22 6.5 17.5 2 12 2ZM13.4 18.1V18.7C13.4 19.4 12.8 20 12.1 20C11.4 20 10.8 19.4 10.8 18.7V18.1C9.5 17.8 8.3 17.1 7.8 15.9C7.6 15.3 8 14.7 8.6 14.7H8.8C9.2 14.7 9.5 14.9 9.6 15.3C9.9 16.1 10.7 16.6 12.1 16.6C14.1 16.6 14.5 15.6 14.5 15C14.5 14.2 14.1 13.4 11.8 12.9C9.3 12.3 7.6 11.3 7.6 9.2C7.6 7.5 9 6.4 10.7 6V5.3C10.7 4.6 11.3 4 12 4C12.7 4 13.3 4.6 13.3 5.3V6C14.7 6.3 15.5 7.2 15.9 8.3C16.1 8.9 15.7 9.4 15.1 9.4H15C14.6 9.4 14.3 9.1 14.2 8.8C14 8 13.3 7.5 12.1 7.5C10.6 7.5 9.7 8.2 9.7 9.1C9.7 9.9 10.3 10.5 12.4 11C14.5 11.5 16.6 12.4 16.6 14.9C16.5 16.8 15.1 17.8 13.4 18.1Z" fill="#212121"/>
</svg>
