<svg width="20" height="20" viewBox="0 0 20 20" fill="none" xmlns="http://www.w3.org/2000/svg">
<path d="M10 0C4.5 0 0 4.5 0 10C0 15.5 4.5 20 10 20C15.5 20 20 15.5 20 10C20 4.5 15.5 0 10 0ZM11 17H9V15H11V17ZM13.1 9.2L12.2 10.1C11.7 10.6 11.3 11.1 11.2 11.8C11.1 12.2 11 12.5 11 13H9V12.5C9 12 9.1 11.6 9.2 11.2C9.4 10.6 9.7 10.1 10.1 9.7L11.3 8.4C11.8 8 12 7.3 11.9 6.6C11.8 5.9 11.2 5.3 10.5 5.1C9.4 4.8 8.4 5.4 8 6.4C8 6.7 7.7 7 7.3 7H7C6.4 7 6 6.4 6.2 5.9C6.6 4.4 7.9 3.3 9.4 3.1C10.9 2.9 12.4 3.7 13.3 4.9C14.4 6.5 14.1 8.2 13.1 9.2Z" fill="#212121"/>
</svg>
