<svg width="24" height="24" viewBox="0 0 24 24" fill="none" xmlns="http://www.w3.org/2000/svg">
<path d="M16 11C17.7 11 19 9.7 19 8C19 6.3 17.7 5 16 5C14.3 5 13 6.3 13 8C13 9.7 14.3 11 16 11Z" fill="#212121"/>
<path d="M8 11C9.7 11 11 9.7 11 8C11 6.3 9.7 5 8 5C6.3 5 5 6.3 5 8C5 9.7 6.3 11 8 11Z" fill="#212121"/>
<path d="M8 13C5.7 13 1 14.2 1 16.5V18C1 18.5 1.5 19 2 19H14C14.6 19 15 18.5 15 18V16.5C15 14.2 10.3 13 8 13Z" fill="#212121"/>
<path d="M16 13C15.7 13 15.4 13 15 13.1C16.1 13.9 16.9 15 16.9 16.5V18C16.9 18.4 16.8 18.7 16.7 19H22C22.5 19 23 18.5 23 18V16.5C23 14.2 18.3 13 16 13Z" fill="#212121"/>
</svg>
