<svg width="16" height="20" viewBox="0 0 16 20" fill="none" xmlns="http://www.w3.org/2000/svg">
<path d="M7.5853 19.5C8.6853 19.5 9.5853 18.6 9.5853 17.5H5.5853C5.5853 18.6 6.4853 19.5 7.5853 19.5ZM13.5853 13.5V8.5C13.5853 5.4 11.9853 2.9 9.0853 2.2V1.5C9.0853 0.7 8.3853 0 7.5853 0C6.7853 0 6.0853 0.7 6.0853 1.5V2.2C3.1853 2.9 1.5853 5.4 1.5853 8.5V13.5L0.285296 14.8C-0.314704 15.4 0.0852963 16.5 0.985296 16.5H14.1853C15.0853 16.5 15.4853 15.4 14.8853 14.8L13.5853 13.5Z" fill="#212121"/>
</svg>
