<svg width="24" height="24" viewBox="0 0 24 24" fill="none" xmlns="http://www.w3.org/2000/svg">
<path d="M15.4997 14.0001H14.6997L14.3997 13.7001C15.5997 12.3001 16.1997 10.4001 15.8997 8.40005C15.3997 5.60005 13.0997 3.40006 10.2997 3.10006C6.09968 2.60006 2.49968 6.10005 2.99968 10.4001C3.29968 13.2001 5.59968 15.5001 8.29968 16.0001C10.2997 16.3001 12.1997 15.7001 13.5997 14.5001L13.8997 14.8001V15.6001L18.0997 19.8001C18.4997 20.2001 19.1997 20.2001 19.5997 19.8001C19.9997 19.4001 19.9997 18.7001 19.5997 18.3001L15.4997 14.0001ZM9.49968 14.0001C6.99968 14.0001 4.99968 12.0001 4.99968 9.50006C4.99968 7.00006 6.99968 5.00006 9.49968 5.00006C11.9997 5.00006 13.9997 7.00006 13.9997 9.50006C13.9997 12.0001 11.9997 14.0001 9.49968 14.0001Z" fill="#6A6A6A"/>
</svg>
